<?xml version="1.0" standalone="no"?><!DOCTYPE svg PUBLIC "-//W3C//DTD SVG 1.1//EN" "http://www.w3.org/Graphics/SVG/1.1/DTD/svg11.dtd"><svg t="1687707513060" class="icon" viewBox="0 0 1024 1024" version="1.1" xmlns="http://www.w3.org/2000/svg" p-id="697" xmlns:xlink="http://www.w3.org/1999/xlink" width="200" height="200"><path d="M843.76 924.7c7.31 19.27-3.57 35.03-24.18 35.03H203.09c-20.6 0-31.48-15.76-24.18-35.03l194.64-513.1c7.3-19.27 29.92-32.28 50.25-28.88l50.58 8.43c20.33 3.38 53.61 3.38 73.93 0l50.58-8.43c20.33-3.4 42.94 9.61 50.26 28.88l194.61 513.1z" fill="#9B5C5C" p-id="698"></path><path d="M511.34 697.39c-10.35 0-18.75-8.37-18.75-18.75V491.26c0-10.35 8.4-18.75 18.75-18.75s18.73 8.4 18.73 18.75v187.37c0 10.39-8.38 18.76-18.73 18.76zM417.64 584.95c-10.35 0-18.73-8.37-18.73-18.75v-93.69c0-10.35 8.38-18.75 18.73-18.75s18.73 8.4 18.73 18.75v93.69c0 10.38-8.38 18.75-18.73 18.75zM605.03 547.48c-10.35 0-18.73-8.4-18.73-18.75v-61.85c0-10.35 8.38-18.72 18.73-18.72s18.75 8.37 18.75 18.72v61.85c0 10.35-8.4 18.75-18.75 18.75z" fill="#E8563F" p-id="699"></path><path d="M619.62 292.11c-0.59-0.74-14.53-18.39-1.3-31.68 29.41-29.54 13.68-65.77 1.21-80.89-0.01 0-0.03-0.03-0.05-0.06h-0.01c-3.43-4.14-8.62-6.81-14.43-6.81-10.35 0-18.73 8.4-18.73 18.75 0 4.56 1.62 8.73 4.31 11.97 0.04 0.03 3.99 5.16 5.9 11.69 2.25 7.66 0.82 13.31-4.75 18.91-29.34 29.45-13.68 66.26-1.32 81.64l0.01-0.03c3.43 4.26 8.69 7 14.57 7 10.35 0 18.75-8.4 18.75-18.75 0-4.43-1.57-8.52-4.16-11.74z" fill="#CBD0D8" p-id="700"></path><path d="M542.81 125.11c-4.9-27.97-14.34-50.53-15.54-53.33-0.03-0.06-0.04-0.11-0.07-0.17a0.597 0.597 0 0 0-0.06-0.11c-2.9-6.61-9.48-11.25-17.17-11.25-10.35 0-18.73 8.4-18.73 18.75 0 2.66 0.56 5.19 1.56 7.49 0.08 0.19 8.73 20.2 13.08 45.07 3.66 20.92 4.9 49.41-9.95 66.21-19.63 22.21-25.88 55.97-18.07 97.7 5.15 27.42 14.66 49.66 16.2 53.14 0.01 0.03 0.01 0.06 0.03 0.08 0.08 0.19 0.14 0.33 0.17 0.36h0.01c2.94 6.51 9.47 11.04 17.07 11.04 10.35 0 18.73-8.37 18.73-18.75 0-2.72-0.6-5.32-1.66-7.68h0.01c-9.61-21.41-29.12-83.09-4.4-111.06 19.58-22.14 26.07-55.85 18.79-97.49z" fill="#A9B1BC" p-id="701"></path><path d="M432.12 179.54c-0.01-0.03-0.03-0.03-0.03-0.03l-0.01-0.03h-0.01c-3.43-4.14-8.62-6.81-14.43-6.81-10.35 0-18.73 8.4-18.73 18.75 0 4.56 1.62 8.73 4.31 11.97 0.04 0.03 3.99 5.16 5.9 11.69 2.24 7.66 0.82 13.31-4.75 18.91-29.34 29.45-13.7 66.26-1.32 81.64v-0.03c3.44 4.26 8.69 7 14.59 7 10.35 0 18.73-8.4 18.73-18.75 0-4.45-1.55-8.54-4.16-11.75h0.01c-0.6-0.74-14.55-18.39-1.32-31.68 29.45-29.52 13.7-65.78 1.22-80.88z" fill="#CBD0D8" p-id="702"></path><path d="M511.34 491.26c112.44 0 155.79-32.2 155.79-32.2l-18-47.46c-7.31-19.27-29.93-32.28-50.26-28.88l-50.58 8.43c-20.33 3.38-53.61 3.38-73.93 0l-50.58-8.43c-20.33-3.4-42.95 9.61-50.25 28.88l-20.69 54.49c0.02 0 46.06 25.17 158.5 25.17z" fill="#FB6D51" p-id="703"></path></svg>